<svg width="521" height="51" viewBox="0 0 521 51" fill="none" xmlns="http://www.w3.org/2000/svg">
<path d="M3.45387 50C2.4272 50 1.63387 49.7433 1.07387 49.23C0.560534 48.67 0.303868 47.8767 0.303868 46.85V3.8C0.303868 2.77333 0.560534 2.00333 1.07387 1.49C1.63387 0.929998 2.4272 0.649997 3.45387 0.649997H16.9639C24.9439 0.649997 31.1039 2.75 35.4439 6.95C39.7839 11.15 41.9539 17.2633 41.9539 25.29C41.9539 29.3033 41.3939 32.85 40.2739 35.93C39.2005 38.9633 37.5905 41.53 35.4439 43.63C33.2972 45.73 30.6839 47.3167 27.6039 48.39C24.5239 49.4633 20.9772 50 16.9639 50H3.45387ZM6.04387 45.1H16.5439C19.8105 45.1 22.6339 44.68 25.0139 43.84C27.4405 43 29.4472 41.7633 31.0339 40.13C32.6672 38.4967 33.8805 36.4433 34.6739 33.97C35.4672 31.45 35.8639 28.5567 35.8639 25.29C35.8639 18.71 34.2539 13.7867 31.0339 10.52C27.8139 7.20666 22.9839 5.55 16.5439 5.55H6.04387V45.1ZM62.197 50.63C59.8637 50.63 57.7637 50.1867 55.897 49.3C54.077 48.3667 52.6303 47.1067 51.557 45.52C50.4837 43.9333 49.947 42.16 49.947 40.2C49.947 37.68 50.577 35.6967 51.837 34.25C53.1437 32.8033 55.267 31.7767 58.207 31.17C61.1937 30.5633 65.2537 30.26 70.387 30.26H73.537V33.97H70.457C66.677 33.97 63.6903 34.1567 61.497 34.53C59.3503 34.8567 57.8337 35.44 56.947 36.28C56.107 37.12 55.687 38.31 55.687 39.85C55.687 41.7633 56.3403 43.3267 57.647 44.54C59.0003 45.7533 60.8203 46.36 63.107 46.36C64.9737 46.36 66.607 45.9167 68.007 45.03C69.4537 44.1433 70.5737 42.93 71.367 41.39C72.207 39.85 72.627 38.0767 72.627 36.07V28.09C72.627 25.1967 72.0437 23.12 70.877 21.86C69.7103 20.5533 67.797 19.9 65.137 19.9C63.5037 19.9 61.8703 20.11 60.237 20.53C58.6037 20.95 56.877 21.6267 55.057 22.56C54.4037 22.8867 53.8437 23.0033 53.377 22.91C52.9103 22.77 52.537 22.5133 52.257 22.14C51.977 21.7667 51.8137 21.3467 51.767 20.88C51.7203 20.3667 51.8137 19.8767 52.047 19.41C52.327 18.9433 52.747 18.57 53.307 18.29C55.3603 17.2633 57.3903 16.5167 59.397 16.05C61.4037 15.5833 63.317 15.35 65.137 15.35C68.077 15.35 70.5037 15.84 72.417 16.82C74.3303 17.7533 75.7537 19.2 76.687 21.16C77.6203 23.0733 78.087 25.5467 78.087 28.58V47.55C78.087 48.4833 77.8537 49.2067 77.387 49.72C76.967 50.2333 76.337 50.49 75.497 50.49C74.6103 50.49 73.9337 50.2333 73.467 49.72C73.0003 49.2067 72.767 48.4833 72.767 47.55V42.09H73.397C73.0237 43.8633 72.3003 45.38 71.227 46.64C70.2003 47.9 68.917 48.88 67.377 49.58C65.837 50.28 64.1103 50.63 62.197 50.63ZM91.4061 50.49C90.4728 50.49 89.7728 50.2333 89.3061 49.72C88.8395 49.2067 88.6061 48.4833 88.6061 47.55V18.36C88.6061 17.4267 88.8395 16.7267 89.3061 16.26C89.7728 15.7467 90.4495 15.49 91.3361 15.49C92.2228 15.49 92.8995 15.7467 93.3661 16.26C93.8795 16.7267 94.1361 17.4267 94.1361 18.36V24.38L93.3661 23.54C94.3461 20.8333 95.9328 18.8033 98.1261 17.45C100.366 16.05 102.933 15.35 105.826 15.35C108.533 15.35 110.773 15.84 112.546 16.82C114.366 17.8 115.719 19.2933 116.606 21.3C117.493 23.26 117.936 25.7567 117.936 28.79V47.55C117.936 48.4833 117.679 49.2067 117.166 49.72C116.699 50.2333 116.023 50.49 115.136 50.49C114.203 50.49 113.479 50.2333 112.966 49.72C112.499 49.2067 112.266 48.4833 112.266 47.55V29.14C112.266 25.9667 111.636 23.6567 110.376 22.21C109.163 20.7167 107.203 19.97 104.496 19.97C101.369 19.97 98.8728 20.95 97.0061 22.91C95.1861 24.8233 94.2761 27.39 94.2761 30.61V47.55C94.2761 49.51 93.3195 50.49 91.4061 50.49ZM131.191 50.35C130.258 50.35 129.558 50.0933 129.091 49.58C128.625 49.02 128.391 48.25 128.391 47.27V18.64C128.391 17.66 128.625 16.9133 129.091 16.4C129.558 15.8867 130.258 15.63 131.191 15.63C132.078 15.63 132.778 15.8867 133.291 16.4C133.805 16.9133 134.061 17.66 134.061 18.64V47.27C134.061 48.25 133.805 49.02 133.291 49.58C132.825 50.0933 132.125 50.35 131.191 50.35ZM131.191 7.79C130.025 7.79 129.115 7.48666 128.461 6.88C127.808 6.22666 127.481 5.36333 127.481 4.29C127.481 3.17 127.808 2.33 128.461 1.77C129.115 1.16333 130.025 0.859998 131.191 0.859998C132.405 0.859998 133.315 1.16333 133.921 1.77C134.575 2.33 134.901 3.17 134.901 4.29C134.901 5.36333 134.575 6.22666 133.921 6.88C133.315 7.48666 132.405 7.79 131.191 7.79ZM159.991 50.63C156.397 50.63 153.294 49.93 150.681 48.53C148.114 47.0833 146.107 45.0533 144.661 42.44C143.261 39.8267 142.561 36.7 142.561 33.06C142.561 29.5133 143.261 26.4333 144.661 23.82C146.061 21.16 147.974 19.0833 150.401 17.59C152.874 16.0967 155.721 15.35 158.941 15.35C161.227 15.35 163.281 15.7467 165.101 16.54C166.921 17.2867 168.461 18.3833 169.721 19.83C171.027 21.2767 172.007 23.0267 172.661 25.08C173.361 27.1333 173.711 29.4433 173.711 32.01C173.711 32.7567 173.501 33.3167 173.081 33.69C172.661 34.0167 172.054 34.18 171.261 34.18H146.901V30.47H169.931L168.811 31.38C168.811 28.86 168.437 26.7367 167.691 25.01C166.944 23.2367 165.847 21.8833 164.401 20.95C163.001 20.0167 161.227 19.55 159.081 19.55C156.701 19.55 154.671 20.11 152.991 21.23C151.357 22.3033 150.121 23.82 149.281 25.78C148.441 27.6933 148.021 29.9333 148.021 32.5V32.92C148.021 37.2133 149.047 40.48 151.101 42.72C153.201 44.96 156.164 46.08 159.991 46.08C161.577 46.08 163.141 45.87 164.681 45.45C166.267 45.03 167.807 44.33 169.301 43.35C169.954 42.93 170.537 42.7433 171.051 42.79C171.611 42.79 172.054 42.9533 172.381 43.28C172.707 43.56 172.917 43.9333 173.011 44.4C173.151 44.82 173.104 45.2867 172.871 45.8C172.684 46.3133 172.287 46.7567 171.681 47.13C170.141 48.25 168.321 49.1133 166.221 49.72C164.121 50.3267 162.044 50.63 159.991 50.63ZM192.277 50.63C188.917 50.63 186.35 49.6033 184.577 47.55C182.803 45.4967 181.917 42.5567 181.917 38.73V3.03C181.917 2.09666 182.15 1.39666 182.617 0.929998C183.083 0.416665 183.783 0.159999 184.717 0.159999C185.603 0.159999 186.303 0.416665 186.817 0.929998C187.33 1.39666 187.587 2.09666 187.587 3.03V38.31C187.587 40.83 188.077 42.72 189.057 43.98C190.083 45.1933 191.577 45.8 193.537 45.8C193.957 45.8 194.33 45.7767 194.657 45.73C194.983 45.6833 195.31 45.66 195.637 45.66C196.15 45.6133 196.5 45.73 196.687 46.01C196.92 46.29 197.037 46.85 197.037 47.69C197.037 48.53 196.85 49.16 196.477 49.58C196.103 50 195.497 50.28 194.657 50.42C194.283 50.4667 193.887 50.5133 193.467 50.56C193.047 50.6067 192.65 50.63 192.277 50.63ZM212.99 50.63C209.63 50.63 207.063 49.6033 205.29 47.55C203.516 45.4967 202.63 42.5567 202.63 38.73V3.03C202.63 2.09666 202.863 1.39666 203.33 0.929998C203.796 0.416665 204.496 0.159999 205.43 0.159999C206.316 0.159999 207.016 0.416665 207.53 0.929998C208.043 1.39666 208.3 2.09666 208.3 3.03V38.31C208.3 40.83 208.79 42.72 209.77 43.98C210.796 45.1933 212.29 45.8 214.25 45.8C214.67 45.8 215.043 45.7767 215.37 45.73C215.696 45.6833 216.023 45.66 216.35 45.66C216.863 45.6133 217.213 45.73 217.4 46.01C217.633 46.29 217.75 46.85 217.75 47.69C217.75 48.53 217.563 49.16 217.19 49.58C216.816 50 216.21 50.28 215.37 50.42C214.996 50.4667 214.6 50.5133 214.18 50.56C213.76 50.6067 213.363 50.63 212.99 50.63ZM234.052 50.63C231.719 50.63 229.619 50.1867 227.752 49.3C225.932 48.3667 224.486 47.1067 223.412 45.52C222.339 43.9333 221.802 42.16 221.802 40.2C221.802 37.68 222.432 35.6967 223.692 34.25C224.999 32.8033 227.122 31.7767 230.062 31.17C233.049 30.5633 237.109 30.26 242.242 30.26H245.392V33.97H242.312C238.532 33.97 235.546 34.1567 233.352 34.53C231.206 34.8567 229.689 35.44 228.802 36.28C227.962 37.12 227.542 38.31 227.542 39.85C227.542 41.7633 228.196 43.3267 229.502 44.54C230.856 45.7533 232.676 46.36 234.962 46.36C236.829 46.36 238.462 45.9167 239.862 45.03C241.309 44.1433 242.429 42.93 243.222 41.39C244.062 39.85 244.482 38.0767 244.482 36.07V28.09C244.482 25.1967 243.899 23.12 242.732 21.86C241.566 20.5533 239.652 19.9 236.992 19.9C235.359 19.9 233.726 20.11 232.092 20.53C230.459 20.95 228.732 21.6267 226.912 22.56C226.259 22.8867 225.699 23.0033 225.232 22.91C224.766 22.77 224.392 22.5133 224.112 22.14C223.832 21.7667 223.669 21.3467 223.622 20.88C223.576 20.3667 223.669 19.8767 223.902 19.41C224.182 18.9433 224.602 18.57 225.162 18.29C227.216 17.2633 229.246 16.5167 231.252 16.05C233.259 15.5833 235.172 15.35 236.992 15.35C239.932 15.35 242.359 15.84 244.272 16.82C246.186 17.7533 247.609 19.2 248.542 21.16C249.476 23.0733 249.942 25.5467 249.942 28.58V47.55C249.942 48.4833 249.709 49.2067 249.242 49.72C248.822 50.2333 248.192 50.49 247.352 50.49C246.466 50.49 245.789 50.2333 245.322 49.72C244.856 49.2067 244.622 48.4833 244.622 47.55V42.09H245.252C244.879 43.8633 244.156 45.38 243.082 46.64C242.056 47.9 240.772 48.88 239.232 49.58C237.692 50.28 235.966 50.63 234.052 50.63ZM282.428 50C281.402 50 280.608 49.7433 280.048 49.23C279.535 48.67 279.278 47.8767 279.278 46.85V3.8C279.278 2.77333 279.535 2.00333 280.048 1.49C280.608 0.929998 281.402 0.649997 282.428 0.649997H308.468C309.262 0.649997 309.868 0.859997 310.288 1.28C310.708 1.7 310.918 2.28333 310.918 3.03C310.918 3.82333 310.708 4.43 310.288 4.85C309.868 5.27 309.262 5.48 308.468 5.48H284.878V22.56H306.998C307.792 22.56 308.398 22.77 308.818 23.19C309.238 23.5633 309.448 24.1467 309.448 24.94C309.448 25.7333 309.238 26.34 308.818 26.76C308.398 27.18 307.792 27.39 306.998 27.39H284.878V45.17H308.468C309.262 45.17 309.868 45.38 310.288 45.8C310.708 46.22 310.918 46.8033 310.918 47.55C310.918 48.3433 310.708 48.95 310.288 49.37C309.868 49.79 309.262 50 308.468 50H282.428ZM330.252 50.63C328.152 50.63 326.029 50.3733 323.882 49.86C321.782 49.3467 319.822 48.46 318.002 47.2C317.535 46.8733 317.209 46.5 317.022 46.08C316.835 45.6133 316.765 45.17 316.812 44.75C316.905 44.2833 317.092 43.8867 317.372 43.56C317.699 43.2333 318.072 43.0467 318.492 43C318.959 42.9067 319.472 43 320.032 43.28C321.852 44.4 323.602 45.1933 325.282 45.66C327.009 46.08 328.712 46.29 330.392 46.29C333.052 46.29 335.059 45.8 336.412 44.82C337.765 43.84 338.442 42.51 338.442 40.83C338.442 39.5233 337.999 38.4967 337.112 37.75C336.225 36.9567 334.825 36.35 332.912 35.93L326.542 34.53C323.602 33.9233 321.409 32.8733 319.962 31.38C318.562 29.8867 317.862 27.95 317.862 25.57C317.862 23.47 318.399 21.6733 319.472 20.18C320.592 18.64 322.155 17.45 324.162 16.61C326.169 15.77 328.502 15.35 331.162 15.35C333.215 15.35 335.152 15.63 336.972 16.19C338.839 16.7033 340.519 17.5433 342.012 18.71C342.479 19.0367 342.782 19.4333 342.922 19.9C343.109 20.32 343.132 20.7633 342.992 21.23C342.899 21.65 342.689 22.0233 342.362 22.35C342.035 22.63 341.639 22.7933 341.172 22.84C340.705 22.8867 340.215 22.7467 339.702 22.42C338.302 21.4867 336.879 20.81 335.432 20.39C333.985 19.9233 332.562 19.69 331.162 19.69C328.549 19.69 326.565 20.2033 325.212 21.23C323.859 22.2567 323.182 23.61 323.182 25.29C323.182 26.5967 323.602 27.67 324.442 28.51C325.282 29.35 326.589 29.9567 328.362 30.33L334.732 31.66C337.765 32.3133 340.029 33.3633 341.522 34.81C343.062 36.21 343.832 38.1233 343.832 40.55C343.832 43.63 342.595 46.08 340.122 47.9C337.649 49.72 334.359 50.63 330.252 50.63ZM366.893 50.63C363.487 50.63 360.547 49.8833 358.073 48.39C355.6 46.8967 353.687 44.82 352.333 42.16C351.027 39.4533 350.373 36.3267 350.373 32.78C350.373 30.0733 350.747 27.6467 351.493 25.5C352.24 23.3533 353.337 21.5333 354.783 20.04C356.23 18.5 357.957 17.3333 359.963 16.54C362.017 15.7467 364.327 15.35 366.893 15.35C368.573 15.35 370.323 15.6067 372.143 16.12C373.963 16.6333 375.62 17.52 377.113 18.78C377.58 19.1067 377.883 19.5033 378.023 19.97C378.163 20.4367 378.163 20.9033 378.023 21.37C377.883 21.79 377.65 22.1633 377.323 22.49C376.997 22.77 376.577 22.9333 376.063 22.98C375.597 23.0267 375.107 22.8633 374.593 22.49C373.38 21.5567 372.143 20.9033 370.883 20.53C369.623 20.1567 368.41 19.97 367.243 19.97C365.423 19.97 363.837 20.2733 362.483 20.88C361.13 21.44 359.987 22.2567 359.053 23.33C358.12 24.4033 357.397 25.7333 356.883 27.32C356.417 28.9067 356.183 30.75 356.183 32.85C356.183 36.91 357.14 40.13 359.053 42.51C360.967 44.8433 363.697 46.01 367.243 46.01C368.41 46.01 369.6 45.8233 370.813 45.45C372.073 45.0767 373.333 44.4233 374.593 43.49C375.107 43.1167 375.597 42.9533 376.063 43C376.53 43.0467 376.927 43.2333 377.253 43.56C377.58 43.84 377.79 44.2133 377.883 44.68C378.023 45.1467 378.023 45.6133 377.883 46.08C377.743 46.5 377.44 46.8733 376.973 47.2C375.48 48.4133 373.847 49.3 372.073 49.86C370.3 50.3733 368.573 50.63 366.893 50.63ZM398.332 50.63C395.019 50.63 392.149 49.9067 389.722 48.46C387.295 47.0133 385.405 44.9833 384.052 42.37C382.745 39.71 382.092 36.5833 382.092 32.99C382.092 30.2833 382.465 27.8567 383.212 25.71C383.959 23.5167 385.055 21.65 386.502 20.11C387.949 18.57 389.652 17.4033 391.612 16.61C393.619 15.77 395.859 15.35 398.332 15.35C401.645 15.35 404.515 16.0733 406.942 17.52C409.369 18.9667 411.235 21.02 412.542 23.68C413.895 26.2933 414.572 29.3967 414.572 32.99C414.572 35.6967 414.199 38.1233 413.452 40.27C412.705 42.4167 411.609 44.2833 410.162 45.87C408.715 47.41 406.989 48.6 404.982 49.44C403.022 50.2333 400.805 50.63 398.332 50.63ZM398.332 46.08C400.432 46.08 402.275 45.5667 403.862 44.54C405.449 43.5133 406.662 42.02 407.502 40.06C408.389 38.1 408.832 35.7433 408.832 32.99C408.832 28.7433 407.875 25.5 405.962 23.26C404.095 21.02 401.552 19.9 398.332 19.9C396.185 19.9 394.319 20.4133 392.732 21.44C391.192 22.42 389.979 23.89 389.092 25.85C388.252 27.7633 387.832 30.1433 387.832 32.99C387.832 37.19 388.789 40.4333 390.702 42.72C392.615 44.96 395.159 46.08 398.332 46.08ZM440.309 50.63C437.229 50.63 434.569 49.8367 432.329 48.25C430.135 46.6633 428.665 44.54 427.919 41.88L428.689 41.11V47.55C428.689 48.4833 428.432 49.2067 427.919 49.72C427.452 50.2333 426.775 50.49 425.889 50.49C424.955 50.49 424.255 50.2333 423.789 49.72C423.322 49.2067 423.089 48.4833 423.089 47.55V3.03C423.089 2.09666 423.322 1.39666 423.789 0.929998C424.255 0.416665 424.955 0.159999 425.889 0.159999C426.775 0.159999 427.475 0.416665 427.989 0.929998C428.502 1.39666 428.759 2.09666 428.759 3.03V23.89H427.919C428.712 21.2767 430.205 19.2 432.399 17.66C434.592 16.12 437.229 15.35 440.309 15.35C443.389 15.35 446.049 16.0733 448.289 17.52C450.529 18.92 452.255 20.95 453.469 23.61C454.729 26.2233 455.359 29.35 455.359 32.99C455.359 36.5833 454.729 39.71 453.469 42.37C452.255 44.9833 450.505 47.0133 448.219 48.46C445.979 49.9067 443.342 50.63 440.309 50.63ZM439.119 46.08C441.265 46.08 443.109 45.5667 444.649 44.54C446.235 43.5133 447.449 42.02 448.289 40.06C449.175 38.1 449.619 35.7433 449.619 32.99C449.619 28.7433 448.662 25.5 446.749 23.26C444.882 21.02 442.339 19.9 439.119 19.9C437.019 19.9 435.175 20.4133 433.589 21.44C432.002 22.42 430.765 23.89 429.879 25.85C429.039 27.7633 428.619 30.1433 428.619 32.99C428.619 37.19 429.575 40.4333 431.489 42.72C433.402 44.96 435.945 46.08 439.119 46.08ZM474.609 50.63C472.276 50.63 470.176 50.1867 468.309 49.3C466.489 48.3667 465.042 47.1067 463.969 45.52C462.896 43.9333 462.359 42.16 462.359 40.2C462.359 37.68 462.989 35.6967 464.249 34.25C465.556 32.8033 467.679 31.7767 470.619 31.17C473.606 30.5633 477.666 30.26 482.799 30.26H485.949V33.97H482.869C479.089 33.97 476.102 34.1567 473.909 34.53C471.762 34.8567 470.246 35.44 469.359 36.28C468.519 37.12 468.099 38.31 468.099 39.85C468.099 41.7633 468.752 43.3267 470.059 44.54C471.412 45.7533 473.232 46.36 475.519 46.36C477.386 46.36 479.019 45.9167 480.419 45.03C481.866 44.1433 482.986 42.93 483.779 41.39C484.619 39.85 485.039 38.0767 485.039 36.07V28.09C485.039 25.1967 484.456 23.12 483.289 21.86C482.122 20.5533 480.209 19.9 477.549 19.9C475.916 19.9 474.282 20.11 472.649 20.53C471.016 20.95 469.289 21.6267 467.469 22.56C466.816 22.8867 466.256 23.0033 465.789 22.91C465.322 22.77 464.949 22.5133 464.669 22.14C464.389 21.7667 464.226 21.3467 464.179 20.88C464.132 20.3667 464.226 19.8767 464.459 19.41C464.739 18.9433 465.159 18.57 465.719 18.29C467.772 17.2633 469.802 16.5167 471.809 16.05C473.816 15.5833 475.729 15.35 477.549 15.35C480.489 15.35 482.916 15.84 484.829 16.82C486.742 17.7533 488.166 19.2 489.099 21.16C490.032 23.0733 490.499 25.5467 490.499 28.58V47.55C490.499 48.4833 490.266 49.2067 489.799 49.72C489.379 50.2333 488.749 50.49 487.909 50.49C487.022 50.49 486.346 50.2333 485.879 49.72C485.412 49.2067 485.179 48.4833 485.179 47.55V42.09H485.809C485.436 43.8633 484.712 45.38 483.639 46.64C482.612 47.9 481.329 48.88 479.789 49.58C478.249 50.28 476.522 50.63 474.609 50.63ZM503.888 50.49C502.955 50.49 502.232 50.2333 501.718 49.72C501.252 49.2067 501.018 48.4833 501.018 47.55V18.36C501.018 17.4267 501.252 16.7267 501.718 16.26C502.185 15.7467 502.862 15.49 503.748 15.49C504.635 15.49 505.312 15.7467 505.778 16.26C506.292 16.7267 506.548 17.4267 506.548 18.36V24.03H505.848C506.595 21.2767 508.018 19.1533 510.118 17.66C512.218 16.1667 514.808 15.3733 517.888 15.28C518.588 15.2333 519.148 15.3967 519.568 15.77C519.988 16.0967 520.222 16.68 520.268 17.52C520.315 18.3133 520.128 18.9433 519.708 19.41C519.288 19.8767 518.635 20.1567 517.748 20.25L516.628 20.39C513.455 20.67 511.005 21.6967 509.278 23.47C507.598 25.1967 506.758 27.5767 506.758 30.61V47.55C506.758 48.4833 506.502 49.2067 505.988 49.72C505.522 50.2333 504.822 50.49 503.888 50.49Z" fill="white"/>
</svg>
