<svg width="55" height="33" viewBox="0 0 69 33" fill="none" xmlns="http://www.w3.org/2000/svg">
<path d="M9.98438 25.1797C10.75 28.7891 11.8594 30.5938 13.3125 30.5938C13.875 30.5938 14.4141 30.3906 14.9297 29.9844C15.4453 29.5625 15.9219 29.0547 16.3594 28.4609C16.8125 27.8516 17.2109 27.2109 17.5547 26.5391C17.8984 25.8672 18.1797 25.2812 18.3984 24.7812C18.5547 24.4062 18.8281 24.2188 19.2188 24.2188C19.4688 24.2188 19.6797 24.3125 19.8516 24.5C20.0234 24.6875 20.1094 24.8906 20.1094 25.1094C20.1094 25.2344 20.0859 25.3438 20.0391 25.4375C19.9297 25.7031 19.7656 26.0625 19.5469 26.5156C19.3438 26.9531 19.0859 27.4297 18.7734 27.9453C18.4766 28.4453 18.1406 28.9609 17.7656 29.4922C17.3906 30.0234 16.9766 30.5 16.5234 30.9219C16.0703 31.3438 15.5859 31.6953 15.0703 31.9766C14.5703 32.2422 14.0391 32.375 13.4766 32.375C12.4297 32.375 11.5312 32.0156 10.7812 31.2969C10.0312 30.5625 9.38281 29.3594 8.83594 27.6875C8.08594 29.2812 7.32812 30.4375 6.5625 31.1562C5.79688 31.875 4.96875 32.2344 4.07812 32.2344C3.60938 32.2344 3.15625 32.1562 2.71875 32C2.28125 31.8594 1.89844 31.6172 1.57031 31.2734C1.24219 30.9297 0.976562 30.4922 0.773438 29.9609C0.570312 29.4141 0.46875 28.75 0.46875 27.9688C0.46875 26.8906 0.65625 25.8984 1.03125 24.9922C1.40625 24.0859 1.89062 23.3125 2.48438 22.6719C3.07812 22.0156 3.73438 21.5078 4.45312 21.1484C5.1875 20.7891 5.91406 20.6094 6.63281 20.6094C6.86719 20.6094 7.07031 20.6953 7.24219 20.8672C7.41406 21.0234 7.5 21.2266 7.5 21.4766C7.5 21.6953 7.42969 21.8906 7.28906 22.0625C7.14844 22.2344 6.96094 22.3359 6.72656 22.3672C6.25781 22.4297 5.75781 22.5781 5.22656 22.8125C4.69531 23.0469 4.20312 23.3906 3.75 23.8438C3.3125 24.2812 2.94531 24.8438 2.64844 25.5312C2.36719 26.2188 2.22656 27.0391 2.22656 27.9922C2.22656 28.7734 2.38281 29.3828 2.69531 29.8203C3.02344 30.2578 3.49219 30.4766 4.10156 30.4766C4.35156 30.4766 4.61719 30.4141 4.89844 30.2891C5.17969 30.1484 5.47656 29.8828 5.78906 29.4922C6.11719 29.1016 6.46875 28.5469 6.84375 27.8281C7.23438 27.1094 7.66406 26.1641 8.13281 24.9922C7.86719 23.6172 7.625 22.0312 7.40625 20.2344C7.1875 18.4375 7.07812 16.4297 7.07812 14.2109C7.07812 13.2422 7.10938 12.2344 7.17188 11.1875C7.23438 10.125 7.33594 9.09375 7.47656 8.09375C7.61719 7.07812 7.80469 6.11719 8.03906 5.21094C8.27344 4.30469 8.55469 3.50781 8.88281 2.82031C9.22656 2.13281 9.625 1.59375 10.0781 1.20312C10.5312 0.796875 11.0469 0.59375 11.625 0.59375C12.1406 0.59375 12.5781 0.734375 12.9375 1.01562C13.2969 1.29688 13.5859 1.6875 13.8047 2.1875C14.0391 2.6875 14.2109 3.28906 14.3203 3.99219C14.4297 4.69531 14.4844 5.46875 14.4844 6.3125C14.4844 8.125 14.3281 9.9375 14.0156 11.75C13.7031 13.5625 13.3125 15.2969 12.8438 16.9531C12.3906 18.6094 11.9062 20.1406 11.3906 21.5469C10.875 22.9531 10.4062 24.1641 9.98438 25.1797ZM12.7266 6.28906C12.7266 5.89844 12.7109 5.47656 12.6797 5.02344C12.6641 4.57031 12.6094 4.14844 12.5156 3.75781C12.4375 3.35156 12.3281 3.01562 12.1875 2.75C12.0469 2.48438 11.8594 2.35156 11.625 2.35156C11.2344 2.35156 10.8672 2.69531 10.5234 3.38281C10.1953 4.07031 9.90625 4.97656 9.65625 6.10156C9.40625 7.21094 9.20312 8.47656 9.04688 9.89844C8.90625 11.3047 8.83594 12.7266 8.83594 14.1641C8.83594 15.5391 8.89062 16.9141 9 18.2891C9.10938 19.6641 9.23438 20.8906 9.375 21.9688C9.82812 20.7656 10.2578 19.5312 10.6641 18.2656C11.0703 16.9844 11.4219 15.6797 11.7188 14.3516C12.0312 13.0234 12.2734 11.6875 12.4453 10.3438C12.6328 8.98438 12.7266 7.63281 12.7266 6.28906ZM36.5391 25.4609C36.4766 25.5859 36.3438 25.8516 36.1406 26.2578C35.9531 26.6484 35.7031 27.1016 35.3906 27.6172C35.0938 28.1328 34.7422 28.6719 34.3359 29.2344C33.9297 29.7969 33.4766 30.3125 32.9766 30.7812C32.4766 31.25 31.9375 31.6406 31.3594 31.9531C30.7812 32.25 30.1719 32.3984 29.5312 32.3984C28.625 32.3984 27.8594 32.1094 27.2344 31.5312C26.625 30.9531 26.1797 30.2266 25.8984 29.3516C25.3672 30.2422 24.7344 30.9531 24 31.4844C23.2656 32 22.5312 32.2578 21.7969 32.2578C21.2188 32.2578 20.6953 32.1562 20.2266 31.9531C19.7578 31.7344 19.3594 31.4375 19.0312 31.0625C18.7031 30.6719 18.4453 30.2188 18.2578 29.7031C18.0859 29.1875 18 28.625 18 28.0156C18 26.7969 18.2031 25.7266 18.6094 24.8047C19.0312 23.8672 19.5625 23.0859 20.2031 22.4609C20.8438 21.8359 21.5469 21.3672 22.3125 21.0547C23.0938 20.7422 23.8438 20.5859 24.5625 20.5859C25.0469 20.5859 25.4922 20.6562 25.8984 20.7969C26.3047 20.9219 26.6484 21.0625 26.9297 21.2188C27.2266 21.375 27.4531 21.5234 27.6094 21.6641C27.7656 21.7891 27.8516 21.8594 27.8672 21.875C28.0391 22.0781 28.125 22.2891 28.125 22.5078C28.125 22.7422 28.0391 22.9531 27.8672 23.1406C27.6953 23.3125 27.4922 23.3984 27.2578 23.3984C27.0078 23.3984 26.7969 23.3125 26.625 23.1406C26.5938 23.1094 26.5234 23.0547 26.4141 22.9766C26.3047 22.8828 26.1562 22.7891 25.9688 22.6953C25.7812 22.6016 25.5547 22.5234 25.2891 22.4609C25.0391 22.3828 24.75 22.3438 24.4219 22.3438C23.9375 22.3438 23.4219 22.4531 22.875 22.6719C22.3281 22.8906 21.8281 23.2344 21.375 23.7031C20.9219 24.1562 20.5391 24.7344 20.2266 25.4375C19.9297 26.125 19.7812 26.9453 19.7812 27.8984C19.7812 28.1953 19.8125 28.5 19.875 28.8125C19.9375 29.1094 20.0469 29.3828 20.2031 29.6328C20.3594 29.8828 20.5703 30.0859 20.8359 30.2422C21.1016 30.3984 21.4297 30.4766 21.8203 30.4766C22.1016 30.4766 22.4219 30.3828 22.7812 30.1953C23.1562 30.0078 23.5078 29.7188 23.8359 29.3281C24.1797 28.9375 24.4844 28.4453 24.75 27.8516C25.0312 27.2578 25.2266 26.5547 25.3359 25.7422C25.3672 25.5234 25.4688 25.3438 25.6406 25.2031C25.8125 25.0469 26.0156 24.9688 26.25 24.9688C26.4688 24.9688 26.6562 25.0547 26.8125 25.2266C26.9844 25.3984 27.0781 25.5938 27.0938 25.8125C27.1094 26.1094 27.1406 26.5312 27.1875 27.0781C27.2344 27.6094 27.3359 28.1406 27.4922 28.6719C27.6641 29.2031 27.9141 29.6641 28.2422 30.0547C28.5703 30.4453 29.0234 30.6406 29.6016 30.6406C29.9766 30.6406 30.3438 30.5391 30.7031 30.3359C31.0781 30.1328 31.4375 29.8672 31.7812 29.5391C32.1406 29.1953 32.4766 28.8125 32.7891 28.3906C33.1172 27.9531 33.4141 27.5156 33.6797 27.0781C33.9453 26.6406 34.1797 26.2188 34.3828 25.8125C34.5859 25.4062 34.7578 25.0547 34.8984 24.7578C34.9766 24.5859 35.0859 24.4531 35.2266 24.3594C35.3828 24.2656 35.5469 24.2188 35.7188 24.2188C35.9844 24.2188 36.1953 24.3203 36.3516 24.5234C36.5234 24.7109 36.6094 24.9141 36.6094 25.1328C36.6094 25.2422 36.5859 25.3516 36.5391 25.4609ZM40.125 29.8906C40.375 29.375 40.6641 28.8125 40.9922 28.2031C41.3203 27.5781 41.6719 26.9531 42.0469 26.3281C42.4219 25.6875 42.8125 25.0547 43.2188 24.4297C43.6406 23.8047 44.0781 23.2109 44.5312 22.6484C44.9844 22.1016 45.4375 21.7109 45.8906 21.4766C46.3594 21.2266 46.7969 21.1016 47.2031 21.1016C48.0156 21.1016 48.6172 21.3984 49.0078 21.9922C49.3984 22.5859 49.5938 23.3203 49.5938 24.1953C49.5938 24.3984 49.5781 24.6484 49.5469 24.9453C49.5312 25.2266 49.5078 25.5312 49.4766 25.8594C49.4609 26.1875 49.4375 26.5234 49.4062 26.8672C49.3906 27.1953 49.3828 27.5078 49.3828 27.8047C49.3828 28.1797 49.3984 28.5391 49.4297 28.8828C49.4766 29.2266 49.5547 29.5312 49.6641 29.7969C49.7734 30.0469 49.9297 30.25 50.1328 30.4062C50.3359 30.5469 50.6016 30.6172 50.9297 30.6172C51.5234 30.6172 52.1016 30.3906 52.6641 29.9375C53.2266 29.4688 53.7422 28.9219 54.2109 28.2969C54.6953 27.6562 55.1094 27.0078 55.4531 26.3516C55.8125 25.6953 56.0781 25.1641 56.25 24.7578C56.3281 24.5859 56.4375 24.4531 56.5781 24.3594C56.7344 24.2656 56.8984 24.2188 57.0703 24.2188C57.3359 24.2188 57.5469 24.3203 57.7031 24.5234C57.875 24.7109 57.9609 24.9141 57.9609 25.1328C57.9609 25.2422 57.9375 25.3516 57.8906 25.4609C57.8281 25.5859 57.7031 25.8438 57.5156 26.2344C57.3281 26.625 57.0781 27.0781 56.7656 27.5938C56.4688 28.0938 56.1172 28.6328 55.7109 29.2109C55.3047 29.7734 54.8516 30.2891 54.3516 30.7578C53.8672 31.2266 53.3359 31.6172 52.7578 31.9297C52.1953 32.2422 51.6016 32.3984 50.9766 32.3984C50.2734 32.3984 49.7031 32.2656 49.2656 32C48.8281 31.7188 48.4844 31.3594 48.2344 30.9219C47.9844 30.4688 47.8125 29.9766 47.7188 29.4453C47.6406 28.8984 47.6016 28.3516 47.6016 27.8047C47.6016 27.5703 47.6094 27.3047 47.625 27.0078C47.6562 26.7109 47.6875 26.3984 47.7188 26.0703C47.7656 25.7422 47.7969 25.4141 47.8125 25.0859C47.8438 24.7578 47.8594 24.4453 47.8594 24.1484C47.8594 23.6484 47.7812 23.3125 47.625 23.1406C47.4688 22.9531 47.3281 22.8594 47.2031 22.8594C46.9531 22.8594 46.6641 23.0078 46.3359 23.3047C46.0234 23.5859 45.6875 23.9609 45.3281 24.4297C44.9844 24.8984 44.625 25.4297 44.25 26.0234C43.8906 26.6016 43.5469 27.1797 43.2188 27.7578C42.9062 28.3359 42.6094 28.8906 42.3281 29.4219C42.0625 29.9375 41.8516 30.3672 41.6953 30.7109C41.3828 31.3672 41.0703 31.8047 40.7578 32.0234C40.4453 32.2578 40.125 32.375 39.7969 32.375C39.3438 32.375 38.9766 32.2422 38.6953 31.9766C38.4297 31.6953 38.2969 31.3047 38.2969 30.8047C38.2969 30.6953 38.3125 30.4844 38.3438 30.1719C38.375 29.8438 38.4141 29.4609 38.4609 29.0234C38.5078 28.5703 38.5547 28.0859 38.6016 27.5703C38.6484 27.0547 38.6953 26.5469 38.7422 26.0469C38.7891 25.5312 38.8281 25.0547 38.8594 24.6172C38.8906 24.1797 38.9062 23.8125 38.9062 23.5156C38.9062 23.125 38.8906 22.75 38.8594 22.3906C38.8281 22.0312 38.7656 21.8125 38.6719 21.7344C38.5312 21.7812 38.2812 22.0781 37.9219 22.625C37.5625 23.1562 37.1016 24.1016 36.5391 25.4609C36.4609 25.6328 36.3438 25.7656 36.1875 25.8594C36.0312 25.9531 35.8672 26 35.6953 26C35.4297 26 35.2188 25.9141 35.0625 25.7422C34.9062 25.5547 34.8281 25.3438 34.8281 25.1094C34.8281 25 34.8516 24.8828 34.8984 24.7578C35.6016 23.0859 36.2578 21.8594 36.8672 21.0781C37.4922 20.2812 38.1094 19.8828 38.7188 19.8828C39.0781 19.8828 39.3828 19.9766 39.6328 20.1641C39.8828 20.3359 40.0781 20.5703 40.2188 20.8672C40.375 21.1641 40.4844 21.4922 40.5469 21.8516C40.625 22.2109 40.6641 22.5781 40.6641 22.9531C40.6641 23.2344 40.6406 23.6719 40.5938 24.2656C40.5625 24.8594 40.5156 25.5 40.4531 26.1875C40.3906 26.8594 40.3281 27.5312 40.2656 28.2031C40.2188 28.875 40.1719 29.4375 40.125 29.8906ZM60.1172 13.6016C60.1172 14.1953 59.9062 14.7031 59.4844 15.125C59.0781 15.5312 58.5781 15.7344 57.9844 15.7344C57.3906 15.7344 56.8828 15.5312 56.4609 15.125C56.0547 14.7031 55.8516 14.1953 55.8516 13.6016C55.8516 13.3047 55.9062 13.0312 56.0156 12.7812C56.125 12.5156 56.2734 12.2891 56.4609 12.1016C56.6641 11.8984 56.8906 11.7422 57.1406 11.6328C57.4062 11.5234 57.6875 11.4688 57.9844 11.4688C58.2812 11.4688 58.5547 11.5234 58.8047 11.6328C59.0703 11.7422 59.2969 11.8984 59.4844 12.1016C59.6875 12.2891 59.8438 12.5156 59.9531 12.7812C60.0625 13.0312 60.1172 13.3047 60.1172 13.6016ZM56.3203 27.3359C56.3203 25.0859 56.4609 22.8438 56.7422 20.6094C56.7734 20.3906 56.8672 20.2031 57.0234 20.0469C57.1953 19.875 57.4141 19.7891 57.6797 19.7891C57.9141 19.7891 58.1094 19.8828 58.2656 20.0703C58.4219 20.2422 58.5 20.4453 58.5 20.6797C58.5 20.7734 58.4766 21.0547 58.4297 21.5234C58.3984 21.9922 58.3516 22.5547 58.2891 23.2109C58.2422 23.8516 58.1953 24.5391 58.1484 25.2734C58.1172 25.9922 58.1016 26.6562 58.1016 27.2656C58.1016 28.0938 58.1797 28.7656 58.3359 29.2812C58.5078 29.7812 58.7188 30.1719 58.9688 30.4531C59.2344 30.7344 59.5078 30.9219 59.7891 31.0156C60.0859 31.1094 60.3672 31.1562 60.6328 31.1562C61.0703 31.1562 61.5234 31 61.9922 30.6875C62.4609 30.375 62.9375 29.9375 63.4219 29.375C63.9219 28.8125 64.4219 28.1406 64.9219 27.3594C65.4219 26.5625 65.9141 25.6797 66.3984 24.7109C66.4766 24.5547 66.5859 24.4375 66.7266 24.3594C66.8672 24.2656 67.0234 24.2188 67.1953 24.2188C67.4453 24.2188 67.6484 24.3125 67.8047 24.5C67.9766 24.6875 68.0625 24.8906 68.0625 25.1094C68.0625 25.2656 68.0312 25.3984 67.9688 25.5078C67.7812 25.8672 67.5469 26.3047 67.2656 26.8203C66.9844 27.3359 66.6641 27.8672 66.3047 28.4141C65.9453 28.9609 65.5469 29.5078 65.1094 30.0547C64.6875 30.5859 64.2344 31.0703 63.75 31.5078C63.2656 31.9297 62.7578 32.2734 62.2266 32.5391C61.6953 32.8047 61.1562 32.9375 60.6094 32.9375C59.9062 32.9375 59.2891 32.7891 58.7578 32.4922C58.2266 32.1953 57.7734 31.7969 57.3984 31.2969C57.0391 30.7969 56.7656 30.2109 56.5781 29.5391C56.4062 28.8516 56.3203 28.1172 56.3203 27.3359ZM58.8047 13.6016C58.8047 13.3828 58.7188 13.1953 58.5469 13.0391C58.3906 12.8672 58.2031 12.7812 57.9844 12.7812C57.7656 12.7812 57.5781 12.8672 57.4219 13.0391C57.2656 13.1953 57.1875 13.3828 57.1875 13.6016C57.1875 13.8203 57.2656 14.0078 57.4219 14.1641C57.5781 14.3203 57.7656 14.3984 57.9844 14.3984C58.2031 14.3984 58.3906 14.3203 58.5469 14.1641C58.7188 14.0078 58.8047 13.8203 58.8047 13.6016Z" fill="white"/>
</svg>
